<svg width="58" height="58" viewBox="0 0 58 58" fill="none" xmlns="http://www.w3.org/2000/svg">
<path fill-rule="evenodd" clip-rule="evenodd" d="M57.25 28.625C57.25 29.0939 57.2383 29.5616 57.2161 30.0305C57.1927 30.4983 57.1588 30.9648 57.112 31.4314C57.0664 31.8979 57.0091 32.3622 56.9401 32.8252C56.8723 33.2894 56.7916 33.7501 56.7004 34.2097C56.6092 34.6692 56.5063 35.1264 56.3929 35.5813C56.2783 36.035 56.1532 36.4864 56.0175 36.9354C55.8819 37.3832 55.7346 37.8276 55.5767 38.2684C55.4188 38.7104 55.2505 39.1466 55.0716 39.5792C54.8927 40.013 54.702 40.441 54.5021 40.8643C54.3021 41.2876 54.0917 41.7062 53.8707 42.119C53.6497 42.5317 53.4181 42.9398 53.1773 43.3421C52.9364 43.7432 52.6861 44.1396 52.4265 44.5289C52.1658 44.9183 51.8957 45.3007 51.6174 45.6772C51.3379 46.0537 51.0503 46.4233 50.7533 46.7846C50.4551 47.1471 50.1499 47.5014 49.8353 47.8487C49.5208 48.1959 49.1981 48.535 48.866 48.866C48.535 49.1981 48.1959 49.5208 47.8487 49.8353C47.5014 50.1499 47.1471 50.4551 46.7846 50.7533C46.4233 51.0503 46.0537 51.3379 45.6772 51.6174C45.3007 51.8968 44.9183 52.1658 44.5289 52.4265C44.1396 52.6861 43.7432 52.9375 43.3409 53.1784C42.9398 53.4193 42.5317 53.6497 42.119 53.8707C41.7062 54.0917 41.2876 54.3021 40.8643 54.5021C40.441 54.702 40.0119 54.8927 39.5792 55.0716C39.1466 55.2505 38.7104 55.4188 38.2684 55.5767C37.8276 55.7346 37.3832 55.8819 36.9342 56.0175C36.4864 56.1543 36.035 56.2783 35.5801 56.3929C35.1264 56.5063 34.6692 56.6092 34.2097 56.7004C33.7501 56.7916 33.2894 56.8723 32.8252 56.9401C32.3622 57.0091 31.8968 57.0664 31.4314 57.112C30.9648 57.1588 30.4983 57.1927 30.0294 57.2161C29.5616 57.2395 29.0939 57.25 28.625 57.25C28.1573 57.25 27.6884 57.2395 27.2206 57.2161C26.7529 57.1927 26.2864 57.1588 25.8198 57.112C25.3532 57.0664 24.889 57.0091 24.4248 56.9401C23.9617 56.8723 23.4999 56.7916 23.0403 56.7004C22.5819 56.6092 22.1247 56.5063 21.6699 56.3929C21.215 56.2783 20.7636 56.1543 20.3158 56.0175C19.8679 55.8819 19.4224 55.7346 18.9816 55.5767C18.5408 55.4188 18.1034 55.2505 17.6708 55.0716C17.2381 54.8927 16.8102 54.702 16.3869 54.5021C15.9636 54.3021 15.545 54.0917 15.131 53.8707C14.7183 53.6497 14.3113 53.4193 13.9091 53.1784C13.5068 52.9375 13.1116 52.6861 12.7222 52.4265C12.3328 52.1658 11.9493 51.8968 11.5739 51.6174C11.1974 51.3379 10.8279 51.0503 10.4654 50.7533C10.1041 50.4551 9.74864 50.1499 9.40252 49.8353C9.05523 49.5208 8.71613 49.1981 8.38404 48.866C8.05312 48.535 7.73039 48.1959 7.41584 47.8487C7.10129 47.5014 6.79493 47.1471 6.49792 46.7846C6.20091 46.4233 5.91209 46.0537 5.63379 45.6772C5.35433 45.3007 5.08421 44.9183 4.82462 44.5289C4.56386 44.1396 4.31363 43.7432 4.07275 43.3421C3.83187 42.9398 3.60151 42.5317 3.38051 42.119C3.15951 41.7062 2.94903 41.2876 2.74908 40.8643C2.54795 40.441 2.35852 40.013 2.17962 39.5792C1.99954 39.1466 1.83116 38.7104 1.6733 38.2684C1.51544 37.8276 1.36928 37.3832 1.23247 36.9354C1.09682 36.4864 0.971706 36.035 0.858282 35.5813C0.744858 35.1264 0.641958 34.6692 0.550751 34.2097C0.458374 33.7501 0.37886 33.2894 0.30987 32.8252C0.240881 32.3622 0.183583 31.8979 0.13798 31.4314C0.0923764 30.9648 0.0572966 30.4983 0.0350797 30.0305C0.0116929 29.5616 0 29.0939 0 28.625C0 28.1573 0.0116929 27.6884 0.0350797 27.2206C0.0572966 26.7529 0.0923764 26.2864 0.13798 25.8198C0.183583 25.3532 0.240881 24.889 0.30987 24.4248C0.37886 23.9617 0.458374 23.4999 0.550751 23.0415C0.641958 22.5819 0.744858 22.1247 0.858282 21.6699C0.971706 21.2162 1.09682 20.7648 1.23247 20.3158C1.36928 19.8679 1.51544 19.4236 1.6733 18.9816C1.83116 18.5408 1.99954 18.1034 2.17962 17.6708C2.35852 17.2381 2.54795 16.8102 2.74908 16.3869C2.94903 15.9636 3.15951 15.545 3.38051 15.1322C3.60151 14.7183 3.83187 14.3113 4.07275 13.9091C4.31363 13.5068 4.56386 13.1116 4.82462 12.7222C5.08421 12.3328 5.35433 11.9493 5.63379 11.5739C5.91209 11.1974 6.20091 10.8279 6.49792 10.4654C6.79493 10.1041 7.10129 9.74864 7.41584 9.40252C7.73039 9.05523 8.05312 8.71613 8.38404 8.38404C8.71613 8.05312 9.05523 7.73039 9.40252 7.41584C9.74864 7.10129 10.1041 6.79493 10.4654 6.49792C10.8279 6.20091 11.1974 5.91209 11.5739 5.63379C11.9493 5.35433 12.3328 5.08538 12.7222 4.82462C13.1116 4.56386 13.5068 4.31363 13.9091 4.07275C14.3113 3.83187 14.7183 3.60151 15.131 3.38051C15.545 3.15951 15.9636 2.94903 16.3869 2.74908C16.8102 2.54795 17.2381 2.35852 17.6708 2.17962C18.1034 1.99954 18.5408 1.83116 18.9816 1.6733C19.4224 1.51544 19.8679 1.36928 20.3158 1.23247C20.7636 1.09682 21.215 0.971706 21.6699 0.858282C22.1247 0.744858 22.5819 0.641958 23.0403 0.550751C23.4999 0.459544 23.9617 0.37886 24.4248 0.30987C24.889 0.242049 25.3532 0.184753 25.8198 0.13798C26.2864 0.0923764 26.7529 0.0572968 27.2206 0.0350797C27.6884 0.0116932 28.1573 0 28.625 0C29.0939 0 29.5616 0.0116932 30.0294 0.0350797C30.4983 0.0572968 30.9648 0.0923764 31.4314 0.13798C31.8968 0.184753 32.3622 0.242049 32.8252 0.30987C33.2894 0.37886 33.7501 0.459544 34.2097 0.550751C34.6692 0.641958 35.1264 0.744858 35.5801 0.858282C36.035 0.971706 36.4864 1.09682 36.9342 1.23247C37.3832 1.36928 37.8276 1.51544 38.2684 1.6733C38.7104 1.83116 39.1466 1.99954 39.5792 2.17962C40.0119 2.35852 40.441 2.54795 40.8643 2.74908C41.2876 2.94903 41.7062 3.15951 42.119 3.38051C42.5317 3.60151 42.9398 3.83187 43.3409 4.07275C43.7432 4.31363 44.1396 4.56386 44.5289 4.82462C44.9183 5.08538 45.3007 5.35433 45.6772 5.63379C46.0537 5.91209 46.4233 6.20091 46.7846 6.49792C47.1471 6.79493 47.5014 7.10129 47.8487 7.41584C48.1959 7.73039 48.535 8.05312 48.866 8.38404C49.1981 8.71613 49.5208 9.05523 49.8353 9.40252C50.1499 9.74864 50.4551 10.1041 50.7533 10.4654C51.0503 10.8279 51.3379 11.1974 51.6174 11.5739C51.8957 11.9493 52.1658 12.3328 52.4265 12.7222C52.6861 13.1116 52.9364 13.5068 53.1773 13.9091C53.4181 14.3113 53.6497 14.7183 53.8707 15.1322C54.0917 15.545 54.3021 15.9636 54.5021 16.3869C54.702 16.8102 54.8927 17.2381 55.0716 17.6708C55.2505 18.1034 55.4188 18.5408 55.5767 18.9816C55.7346 19.4236 55.8819 19.8679 56.0175 20.3158C56.1532 20.7648 56.2783 21.2162 56.3929 21.6699C56.5063 22.1247 56.6092 22.5819 56.7004 23.0415C56.7916 23.4999 56.8723 23.9617 56.9401 24.4248C57.0091 24.889 57.0664 25.3532 57.112 25.8198C57.1588 26.2864 57.1927 26.7529 57.2161 27.2206C57.2383 27.6884 57.25 28.1573 57.25 28.625ZM48.2333 31.7167C47.6603 31.7167 47.2312 31.2302 47.2312 30.6573V26.8792C47.2312 26.3062 47.6603 25.8198 48.2333 25.8198C48.8063 25.8198 49.2354 26.3062 49.2354 26.8792V30.6865C49.2354 31.2595 48.8063 31.7167 48.2333 31.7167ZM10.5917 30.6573C10.5917 31.2302 11.0209 31.7167 11.5938 31.7167C12.1656 31.7167 12.5948 31.2595 12.5948 30.6865V26.8792C12.5948 26.3062 12.1656 25.8198 11.5938 25.8198C11.0209 25.8198 10.5917 26.3062 10.5917 26.8792V30.6573ZM19.6083 43.7677C19.0073 43.7677 18.6062 43.1959 18.6062 42.5083V15.0281C18.6062 14.3417 19.0073 13.7687 19.6083 13.7687C20.2093 13.7687 20.6104 14.3417 20.6104 15.0281V42.5375C20.6104 43.2239 20.1813 43.7677 19.6083 43.7677ZM14.3125 35.9823C14.3125 36.5541 14.7136 37.0405 15.3146 37.0405C15.8876 37.0405 16.3167 36.5541 16.3167 35.9823V21.5832C16.3167 21.0114 15.9156 20.525 15.3146 20.525C14.7136 20.525 14.3125 20.9822 14.3125 21.5832V35.9823ZM23.7594 37.0405C23.1583 37.0405 22.6134 36.5541 22.6134 35.9823V21.5832C22.6134 20.9822 23.1583 20.525 23.7594 20.525C24.3604 20.525 24.9041 21.0114 24.9041 21.5832V35.9823C24.9041 36.5541 24.3312 37.0405 23.7594 37.0405ZM30.6293 35.9823C30.6293 36.5541 31.1731 37.0405 31.7741 37.0405C32.3471 37.0405 32.9189 36.5541 32.9189 35.9823V21.5832C32.9189 21.0114 32.3751 20.525 31.7741 20.525C31.1731 20.525 30.6293 20.9822 30.6293 21.5832V35.9823ZM40.2188 37.0405C39.6178 37.0405 39.2167 36.5541 39.2167 35.9823V21.5832C39.2167 20.9822 39.6178 20.525 40.2188 20.525C40.8199 20.525 41.2198 21.0114 41.2198 21.5832V35.9823C41.2198 36.5541 40.7906 37.0405 40.2188 37.0405ZM34.923 32.2325C34.923 32.8043 35.4668 33.2919 36.0678 33.2919C36.6408 33.2919 37.2126 32.8335 37.2126 32.2325V25.3054C37.2126 24.7324 36.6688 24.246 36.0678 24.246C35.4668 24.246 34.923 24.7044 34.923 25.3054V32.2325ZM44.5125 33.2626C43.9115 33.2626 43.5104 32.7762 43.5104 32.2032V25.2481C43.5104 24.647 43.9115 24.1887 44.5125 24.1887C45.1136 24.1887 45.5135 24.6751 45.5135 25.2481V32.1751C45.5135 32.7762 45.0843 33.2626 44.5125 33.2626ZM26.9071 32.2325C26.9071 32.8043 27.3082 33.2919 27.9092 33.2919C28.4822 33.2919 28.9114 32.8335 28.9114 32.2325V25.3054C28.9114 24.7324 28.5103 24.246 27.9092 24.246C27.3082 24.246 26.9071 24.7044 26.9071 25.3054V32.2325Z" fill="white"/>
</svg>
